<mxfile host="app.diagrams.net" modified="2023-10-29T15:55:08.025Z" agent="Mozilla/5.0 (Windows NT 10.0; Win64; x64) AppleWebKit/537.36 (KHTML, like Gecko) Chrome/118.0.0.0 Safari/537.36 Edg/118.0.2088.69" etag="KI2aZFgrbfYHKoSE75JP" version="22.0.8" type="google">
  <diagram name="第 1 页" id="pjEruA_PNtae_3D4c64C">
    <mxGraphModel dx="1002" dy="561" grid="1" gridSize="10" guides="1" tooltips="1" connect="1" arrows="1" fold="1" page="1" pageScale="1" pageWidth="827" pageHeight="1169" math="0" shadow="0">
      <root>
        <mxCell id="0" />
        <mxCell id="1" parent="0" />
        <mxCell id="OZrYjyA1VvULPo-Jzq-j-1" value="Worker" style="swimlane;fontStyle=1;align=center;verticalAlign=top;childLayout=stackLayout;horizontal=1;startSize=26;horizontalStack=0;resizeParent=1;resizeParentMax=0;resizeLast=0;collapsible=1;marginBottom=0;whiteSpace=wrap;html=1;fillColor=#fff2cc;strokeColor=#d6b656;" vertex="1" parent="1">
          <mxGeometry x="710" y="436" width="130" height="282" as="geometry" />
        </mxCell>
        <mxCell id="OZrYjyA1VvULPo-Jzq-j-2" value="userID:int&lt;br&gt;password:int&lt;br&gt;level:string&lt;br&gt;UserName:string" style="text;strokeColor=#d6b656;fillColor=#fff2cc;align=left;verticalAlign=top;spacingLeft=4;spacingRight=4;overflow=hidden;rotatable=0;points=[[0,0.5],[1,0.5]];portConstraint=eastwest;whiteSpace=wrap;html=1;" vertex="1" parent="OZrYjyA1VvULPo-Jzq-j-1">
          <mxGeometry y="26" width="130" height="74" as="geometry" />
        </mxCell>
        <mxCell id="OZrYjyA1VvULPo-Jzq-j-3" value="" style="line;strokeWidth=1;fillColor=#fff2cc;align=left;verticalAlign=middle;spacingTop=-1;spacingLeft=3;spacingRight=3;rotatable=0;labelPosition=right;points=[];portConstraint=eastwest;strokeColor=#d6b656;labelBackgroundColor=#FFFFCC;labelBorderColor=default;html=1;" vertex="1" parent="OZrYjyA1VvULPo-Jzq-j-1">
          <mxGeometry y="100" width="130" as="geometry" />
        </mxCell>
        <mxCell id="OZrYjyA1VvULPo-Jzq-j-4" value="line()&lt;br&gt;outline()&lt;br&gt;cancelcard()&lt;br&gt;add()&lt;br&gt;delete()&lt;br&gt;modify()&lt;br&gt;select()&lt;br&gt;exit()&lt;br&gt;register()&lt;br&gt;recharge()&lt;br&gt;account()&lt;br&gt;print()" style="text;strokeColor=#d6b656;fillColor=#fff2cc;align=left;verticalAlign=top;spacingLeft=4;spacingRight=4;overflow=hidden;rotatable=0;points=[[0,0.5],[1,0.5]];portConstraint=eastwest;whiteSpace=wrap;html=1;" vertex="1" parent="OZrYjyA1VvULPo-Jzq-j-1">
          <mxGeometry y="100" width="130" height="182" as="geometry" />
        </mxCell>
        <mxCell id="OZrYjyA1VvULPo-Jzq-j-5" value="WorkerRecords" style="shape=folder;fontStyle=1;spacingTop=10;tabWidth=40;tabHeight=14;tabPosition=left;html=1;whiteSpace=wrap;fillColor=#fff2cc;strokeColor=#d6b656;" vertex="1" parent="1">
          <mxGeometry x="719" y="300" width="100" height="50" as="geometry" />
        </mxCell>
        <mxCell id="OZrYjyA1VvULPo-Jzq-j-6" value="Student" style="swimlane;fontStyle=1;align=center;verticalAlign=top;childLayout=stackLayout;horizontal=1;startSize=26;horizontalStack=0;resizeParent=1;resizeParentMax=0;resizeLast=0;collapsible=1;marginBottom=0;whiteSpace=wrap;html=1;fillColor=#fff2cc;strokeColor=#d6b656;" vertex="1" parent="1">
          <mxGeometry x="960" y="275" width="140" height="160" as="geometry" />
        </mxCell>
        <mxCell id="OZrYjyA1VvULPo-Jzq-j-7" value="cradno:int&lt;br&gt;studentni:int&lt;br&gt;studentname:string&lt;br&gt;sex:string&lt;br&gt;department:string&lt;br&gt;grade:string&lt;br&gt;class:string&lt;br&gt;" style="text;strokeColor=#d6b656;fillColor=#fff2cc;align=left;verticalAlign=top;spacingLeft=4;spacingRight=4;overflow=hidden;rotatable=0;points=[[0,0.5],[1,0.5]];portConstraint=eastwest;whiteSpace=wrap;html=1;" vertex="1" parent="OZrYjyA1VvULPo-Jzq-j-6">
          <mxGeometry y="26" width="140" height="114" as="geometry" />
        </mxCell>
        <mxCell id="OZrYjyA1VvULPo-Jzq-j-8" value="" style="line;strokeWidth=0;fillColor=#fff2cc;align=left;verticalAlign=middle;spacingTop=-1;spacingLeft=3;spacingRight=3;rotatable=0;labelPosition=right;points=[];portConstraint=eastwest;strokeColor=#d6b656;" vertex="1" parent="OZrYjyA1VvULPo-Jzq-j-6">
          <mxGeometry y="140" width="140" height="20" as="geometry" />
        </mxCell>
        <mxCell id="OZrYjyA1VvULPo-Jzq-j-9" value="StudentCard" style="swimlane;fontStyle=1;align=center;verticalAlign=top;childLayout=stackLayout;horizontal=1;startSize=26;horizontalStack=0;resizeParent=1;resizeParentMax=0;resizeLast=0;collapsible=1;marginBottom=0;whiteSpace=wrap;html=1;fillColor=#fff2cc;strokeColor=#d6b656;" vertex="1" parent="1">
          <mxGeometry x="960" y="525" width="140" height="170" as="geometry" />
        </mxCell>
        <mxCell id="OZrYjyA1VvULPo-Jzq-j-10" value="cardno:int&lt;br&gt;type:string&lt;br&gt;lscheck:string&lt;br&gt;status:string&lt;br&gt;case:int&lt;br&gt;" style="text;strokeColor=#d6b656;fillColor=#fff2cc;align=left;verticalAlign=top;spacingLeft=4;spacingRight=4;overflow=hidden;rotatable=0;points=[[0,0.5],[1,0.5]];portConstraint=eastwest;whiteSpace=wrap;html=1;" vertex="1" parent="OZrYjyA1VvULPo-Jzq-j-9">
          <mxGeometry y="26" width="140" height="104" as="geometry" />
        </mxCell>
        <mxCell id="OZrYjyA1VvULPo-Jzq-j-11" value="" style="line;strokeWidth=0;fillColor=#fff2cc;align=left;verticalAlign=middle;spacingTop=-1;spacingLeft=3;spacingRight=3;rotatable=0;labelPosition=right;points=[];portConstraint=eastwest;strokeColor=#d6b656;" vertex="1" parent="OZrYjyA1VvULPo-Jzq-j-9">
          <mxGeometry y="130" width="140" height="40" as="geometry" />
        </mxCell>
        <mxCell id="OZrYjyA1VvULPo-Jzq-j-12" value="Studentrecords" style="shape=folder;fontStyle=1;spacingTop=10;tabWidth=40;tabHeight=14;tabPosition=left;html=1;whiteSpace=wrap;fillColor=#fff2cc;strokeColor=#d6b656;" vertex="1" parent="1">
          <mxGeometry x="1200" y="562" width="93" height="70" as="geometry" />
        </mxCell>
        <mxCell id="OZrYjyA1VvULPo-Jzq-j-13" value="Administrator" style="swimlane;fontStyle=1;align=center;verticalAlign=top;childLayout=stackLayout;horizontal=1;startSize=26;horizontalStack=0;resizeParent=1;resizeParentMax=0;resizeLast=0;collapsible=1;marginBottom=0;whiteSpace=wrap;html=1;fillColor=#fff2cc;strokeColor=#d6b656;" vertex="1" parent="1">
          <mxGeometry x="470" y="220" width="140" height="270" as="geometry" />
        </mxCell>
        <mxCell id="OZrYjyA1VvULPo-Jzq-j-14" value="userID:int&lt;br&gt;password:int&lt;br&gt;UserName:string" style="text;strokeColor=#d6b656;fillColor=#fff2cc;align=left;verticalAlign=top;spacingLeft=4;spacingRight=4;overflow=hidden;rotatable=0;points=[[0,0.5],[1,0.5]];portConstraint=eastwest;whiteSpace=wrap;html=1;" vertex="1" parent="OZrYjyA1VvULPo-Jzq-j-13">
          <mxGeometry y="26" width="140" height="54" as="geometry" />
        </mxCell>
        <mxCell id="OZrYjyA1VvULPo-Jzq-j-15" value="" style="line;strokeWidth=1;fillColor=none;align=left;verticalAlign=middle;spacingTop=-1;spacingLeft=3;spacingRight=3;rotatable=0;labelPosition=right;points=[];portConstraint=eastwest;strokeColor=inherit;" vertex="1" parent="OZrYjyA1VvULPo-Jzq-j-13">
          <mxGeometry y="80" width="140" as="geometry" />
        </mxCell>
        <mxCell id="OZrYjyA1VvULPo-Jzq-j-16" value="line()&lt;br style=&quot;border-color: var(--border-color);&quot;&gt;outline()&lt;br style=&quot;border-color: var(--border-color);&quot;&gt;cancelcard()&lt;br style=&quot;border-color: var(--border-color);&quot;&gt;add()&lt;br style=&quot;border-color: var(--border-color);&quot;&gt;delete()&lt;br style=&quot;border-color: var(--border-color);&quot;&gt;modify()&lt;br style=&quot;border-color: var(--border-color);&quot;&gt;select()&lt;br style=&quot;border-color: var(--border-color);&quot;&gt;exit()&lt;br style=&quot;border-color: var(--border-color);&quot;&gt;register()&lt;br style=&quot;border-color: var(--border-color);&quot;&gt;recharge()&lt;br style=&quot;border-color: var(--border-color);&quot;&gt;account()&lt;br style=&quot;border-color: var(--border-color);&quot;&gt;print()" style="text;strokeColor=#d6b656;fillColor=#fff2cc;align=left;verticalAlign=top;spacingLeft=4;spacingRight=4;overflow=hidden;rotatable=0;points=[[0,0.5],[1,0.5]];portConstraint=eastwest;whiteSpace=wrap;html=1;" vertex="1" parent="OZrYjyA1VvULPo-Jzq-j-13">
          <mxGeometry y="80" width="140" height="190" as="geometry" />
        </mxCell>
        <mxCell id="OZrYjyA1VvULPo-Jzq-j-17" value="GeneralUser" style="swimlane;fontStyle=1;align=center;verticalAlign=top;childLayout=stackLayout;horizontal=1;startSize=26;horizontalStack=0;resizeParent=1;resizeParentMax=0;resizeLast=0;collapsible=1;marginBottom=0;whiteSpace=wrap;html=1;fillColor=#fff2cc;strokeColor=#d6b656;" vertex="1" parent="1">
          <mxGeometry x="470" y="650" width="130" height="162" as="geometry" />
        </mxCell>
        <mxCell id="OZrYjyA1VvULPo-Jzq-j-18" value="userID:int&lt;br style=&quot;border-color: var(--border-color);&quot;&gt;password:int&lt;br style=&quot;border-color: var(--border-color);&quot;&gt;UserName:string" style="text;strokeColor=#d6b656;fillColor=#fff2cc;align=left;verticalAlign=top;spacingLeft=4;spacingRight=4;overflow=hidden;rotatable=0;points=[[0,0.5],[1,0.5]];portConstraint=eastwest;whiteSpace=wrap;html=1;" vertex="1" parent="OZrYjyA1VvULPo-Jzq-j-17">
          <mxGeometry y="26" width="130" height="54" as="geometry" />
        </mxCell>
        <mxCell id="OZrYjyA1VvULPo-Jzq-j-19" value="" style="line;strokeWidth=1;fillColor=none;align=left;verticalAlign=middle;spacingTop=-1;spacingLeft=3;spacingRight=3;rotatable=0;labelPosition=right;points=[];portConstraint=eastwest;strokeColor=inherit;" vertex="1" parent="OZrYjyA1VvULPo-Jzq-j-17">
          <mxGeometry y="80" width="130" as="geometry" />
        </mxCell>
        <mxCell id="OZrYjyA1VvULPo-Jzq-j-20" value="line()&lt;br&gt;outline()&lt;br&gt;select()&lt;br&gt;modify()&lt;br&gt;exit()" style="text;strokeColor=#d6b656;fillColor=#fff2cc;align=left;verticalAlign=top;spacingLeft=4;spacingRight=4;overflow=hidden;rotatable=0;points=[[0,0.5],[1,0.5]];portConstraint=eastwest;whiteSpace=wrap;html=1;" vertex="1" parent="OZrYjyA1VvULPo-Jzq-j-17">
          <mxGeometry y="80" width="130" height="82" as="geometry" />
        </mxCell>
        <mxCell id="OZrYjyA1VvULPo-Jzq-j-21" value="Operator" style="swimlane;fontStyle=1;align=center;verticalAlign=top;childLayout=stackLayout;horizontal=1;startSize=26;horizontalStack=0;resizeParent=1;resizeParentMax=0;resizeLast=0;collapsible=1;marginBottom=0;whiteSpace=wrap;html=1;fillColor=#fff2cc;strokeColor=#d6b656;" vertex="1" parent="1">
          <mxGeometry x="300" y="440" width="120" height="208" as="geometry" />
        </mxCell>
        <mxCell id="OZrYjyA1VvULPo-Jzq-j-22" value="userID:int&lt;br style=&quot;border-color: var(--border-color);&quot;&gt;password:int&lt;br style=&quot;border-color: var(--border-color);&quot;&gt;UserName:string" style="text;strokeColor=#d6b656;fillColor=#fff2cc;align=left;verticalAlign=top;spacingLeft=4;spacingRight=4;overflow=hidden;rotatable=0;points=[[0,0.5],[1,0.5]];portConstraint=eastwest;whiteSpace=wrap;html=1;" vertex="1" parent="OZrYjyA1VvULPo-Jzq-j-21">
          <mxGeometry y="26" width="120" height="54" as="geometry" />
        </mxCell>
        <mxCell id="OZrYjyA1VvULPo-Jzq-j-23" value="" style="line;strokeWidth=1;fillColor=none;align=left;verticalAlign=middle;spacingTop=-1;spacingLeft=3;spacingRight=3;rotatable=0;labelPosition=right;points=[];portConstraint=eastwest;strokeColor=inherit;" vertex="1" parent="OZrYjyA1VvULPo-Jzq-j-21">
          <mxGeometry y="80" width="120" as="geometry" />
        </mxCell>
        <mxCell id="OZrYjyA1VvULPo-Jzq-j-24" value="line()&lt;br style=&quot;border-color: var(--border-color);&quot;&gt;outline()&lt;br style=&quot;border-color: var(--border-color);&quot;&gt;register()&lt;br style=&quot;border-color: var(--border-color);&quot;&gt;recharge()&lt;br style=&quot;border-color: var(--border-color);&quot;&gt;cancelcard()&lt;br&gt;modify()&lt;br&gt;select()" style="text;strokeColor=#d6b656;fillColor=#fff2cc;align=left;verticalAlign=top;spacingLeft=4;spacingRight=4;overflow=hidden;rotatable=0;points=[[0,0.5],[1,0.5]];portConstraint=eastwest;whiteSpace=wrap;html=1;" vertex="1" parent="OZrYjyA1VvULPo-Jzq-j-21">
          <mxGeometry y="80" width="120" height="128" as="geometry" />
        </mxCell>
        <mxCell id="OZrYjyA1VvULPo-Jzq-j-25" value="" style="endArrow=block;endSize=16;endFill=0;html=1;rounded=0;entryX=0.008;entryY=0.327;entryDx=0;entryDy=0;entryPerimeter=0;" edge="1" parent="1" target="OZrYjyA1VvULPo-Jzq-j-4">
          <mxGeometry width="160" relative="1" as="geometry">
            <mxPoint x="420" y="570" as="sourcePoint" />
            <mxPoint x="550" y="570" as="targetPoint" />
          </mxGeometry>
        </mxCell>
        <mxCell id="OZrYjyA1VvULPo-Jzq-j-26" value="" style="endArrow=block;endSize=16;endFill=0;html=1;rounded=0;entryX=-0.023;entryY=0.125;entryDx=0;entryDy=0;entryPerimeter=0;exitX=1.004;exitY=0.749;exitDx=0;exitDy=0;exitPerimeter=0;" edge="1" parent="1" source="OZrYjyA1VvULPo-Jzq-j-16" target="OZrYjyA1VvULPo-Jzq-j-4">
          <mxGeometry width="160" relative="1" as="geometry">
            <mxPoint x="570" y="370" as="sourcePoint" />
            <mxPoint x="851" y="408" as="targetPoint" />
          </mxGeometry>
        </mxCell>
        <mxCell id="OZrYjyA1VvULPo-Jzq-j-27" value="" style="endArrow=block;endSize=16;endFill=0;html=1;rounded=0;entryX=0.014;entryY=0.675;entryDx=0;entryDy=0;entryPerimeter=0;exitX=1;exitY=0.268;exitDx=0;exitDy=0;exitPerimeter=0;" edge="1" parent="1" source="OZrYjyA1VvULPo-Jzq-j-20" target="OZrYjyA1VvULPo-Jzq-j-4">
          <mxGeometry width="160" relative="1" as="geometry">
            <mxPoint x="590" y="760" as="sourcePoint" />
            <mxPoint x="871" y="798" as="targetPoint" />
          </mxGeometry>
        </mxCell>
        <mxCell id="OZrYjyA1VvULPo-Jzq-j-28" value="" style="endArrow=open;endSize=12;dashed=1;html=1;rounded=0;entryX=0.5;entryY=0;entryDx=0;entryDy=0;exitX=0.5;exitY=1;exitDx=0;exitDy=0;exitPerimeter=0;" edge="1" parent="1" source="OZrYjyA1VvULPo-Jzq-j-5" target="OZrYjyA1VvULPo-Jzq-j-1">
          <mxGeometry width="160" relative="1" as="geometry">
            <mxPoint x="730" y="330" as="sourcePoint" />
            <mxPoint x="890" y="330" as="targetPoint" />
          </mxGeometry>
        </mxCell>
        <mxCell id="OZrYjyA1VvULPo-Jzq-j-29" value="" style="endArrow=open;endSize=12;dashed=1;html=1;rounded=0;exitX=0;exitY=0;exitDx=0;exitDy=42;exitPerimeter=0;entryX=1;entryY=0.5;entryDx=0;entryDy=0;" edge="1" parent="1" source="OZrYjyA1VvULPo-Jzq-j-12" target="OZrYjyA1VvULPo-Jzq-j-10">
          <mxGeometry width="160" relative="1" as="geometry">
            <mxPoint x="1040" y="470" as="sourcePoint" />
            <mxPoint x="1090" y="550" as="targetPoint" />
          </mxGeometry>
        </mxCell>
        <mxCell id="OZrYjyA1VvULPo-Jzq-j-30" value="" style="endArrow=open;endFill=1;endSize=12;html=1;rounded=0;" edge="1" parent="1">
          <mxGeometry width="160" relative="1" as="geometry">
            <mxPoint x="840" y="590" as="sourcePoint" />
            <mxPoint x="960" y="590" as="targetPoint" />
          </mxGeometry>
        </mxCell>
        <mxCell id="OZrYjyA1VvULPo-Jzq-j-31" value="operation&lt;br&gt;" style="text;html=1;align=center;verticalAlign=middle;resizable=0;points=[];autosize=1;strokeColor=none;fillColor=none;" vertex="1" parent="1">
          <mxGeometry x="870" y="562" width="70" height="30" as="geometry" />
        </mxCell>
        <mxCell id="OZrYjyA1VvULPo-Jzq-j-32" value="" style="endArrow=diamondThin;endFill=1;endSize=24;html=1;rounded=0;exitX=0.5;exitY=0;exitDx=0;exitDy=0;" edge="1" parent="1" source="OZrYjyA1VvULPo-Jzq-j-9">
          <mxGeometry width="160" relative="1" as="geometry">
            <mxPoint x="1035" y="520" as="sourcePoint" />
            <mxPoint x="1030" y="435" as="targetPoint" />
          </mxGeometry>
        </mxCell>
        <mxCell id="OZrYjyA1VvULPo-Jzq-j-33" value="1" style="text;html=1;align=center;verticalAlign=middle;resizable=0;points=[];autosize=1;strokeColor=none;fillColor=none;" vertex="1" parent="1">
          <mxGeometry x="1030" y="495" width="30" height="30" as="geometry" />
        </mxCell>
        <mxCell id="OZrYjyA1VvULPo-Jzq-j-34" value="1" style="text;html=1;align=center;verticalAlign=middle;resizable=0;points=[];autosize=1;strokeColor=none;fillColor=none;" vertex="1" parent="1">
          <mxGeometry x="1040" y="430" width="30" height="30" as="geometry" />
        </mxCell>
      </root>
    </mxGraphModel>
  </diagram>
</mxfile>
